<?xml version="1.0" encoding="utf-8"?>
<!-- Generator: Adobe Illustrator 18.1.1, SVG Export Plug-In . SVG Version: 6.00 Build 0)  -->
<svg version="1.1" id="Layer_1" xmlns="http://www.w3.org/2000/svg" xmlns:xlink="http://www.w3.org/1999/xlink" x="0px" y="0px"
	 viewBox="0 0 800 600" enable-background="new 0 0 800 600" xml:space="preserve">
<rect x="357.3" y="90.3" fill="#FFFFFF" stroke="#000000" stroke-miterlimit="10" width="219.8" height="54.5"/>
<rect x="360.3" y="353.9" fill="#FFFFFF" stroke="#000000" stroke-miterlimit="10" width="219.8" height="54.5"/>
<rect x="44.3" y="290.2" fill="#FFFFFF" stroke="#000000" stroke-miterlimit="10" width="219.8" height="54.5"/>
<text transform="matrix(1 0 0 1 106.455 310.1157)"><tspan x="0" y="0" font-family="'Roboto-Regular'" font-size="12">Create Pull Request  </tspan><tspan x="0.7" y="14.4" font-family="'Roboto-Regular'" font-size="12">as a discussion tool</tspan></text>
<text transform="matrix(1 0 0 1 436.7111 377.8263)"><tspan x="0" y="0" font-family="'Roboto-Regular'" font-size="12">Edit content </tspan><tspan x="-56.1" y="14.4" font-family="'Roboto-Regular'" font-size="12">based on Pull Request discussion</tspan></text>
<text transform="matrix(1 0 0 1 104.5407 458.0493)"><tspan x="0" y="0" font-family="'MyriadPro-Regular'" font-size="12">Once content is ready  </tspan><tspan x="21.2" y="14.4" font-family="'MyriadPro-Regular'" font-size="12">close the pull </tspan><tspan x="36.7" y="28.8" font-family="'MyriadPro-Regular'" font-size="12">request</tspan></text>
<rect x="364.4" y="522.9" fill="#FFFFFF" stroke="#000000" stroke-miterlimit="10" width="219.8" height="54.5"/>
<rect x="50.3" y="438.7" fill="#FFFFFF" stroke="#000000" stroke-miterlimit="10" width="219.8" height="77.8"/>
<text transform="matrix(1 0 0 1 82.801 465.4878)"><tspan x="0" y="0" font-family="'Roboto-Regular'" font-size="12">Editor merges pull request </tspan><tspan x="-25.5" y="14.4" font-family="'Roboto-Regular'" font-size="12">on master documen</tspan><tspan x="81.5" y="14.4" font-family="'Roboto-Regular'" font-size="12">t</tspan><tspan x="84.9" y="14.4" font-family="'Roboto-Regular'" font-size="12"> and closes the </tspan><tspan x="-24.3" y="28.8" font-family="'Roboto-Regular'" font-size="12">pull </tspan><tspan x="-2.1" y="28.8" font-family="'Roboto-Regular'" font-size="12">r</tspan><tspan x="1.3" y="28.8" font-family="'Roboto-Regular'" font-size="12">equest to indicate work is done</tspan></text>
<text transform="matrix(1 0 0 1 404.1575 117.5783)" font-family="'Roboto-Regular'" font-size="12">Upload Content to Github</text>
<text transform="matrix(1 0 0 1 377.4958 559.1327)" font-family="'Roboto-Regular'" font-size="12">Continue the work with the content</text>
<rect x="47.3" y="90.3" fill="#FFFFFF" stroke="#000000" stroke-miterlimit="10" width="219.8" height="54.5"/>
<text transform="matrix(1 0 0 1 87.875 117.5782)"><tspan x="0" y="0" font-family="'Roboto-Regular'" font-size="12">Create Git Repository and </tspan><tspan x="1.4" y="14.4" font-family="'Roboto-Regular'" font-size="12">seed issue/PR categories</tspan></text>
<text transform="matrix(1 0 0 1 406.4348 54.9009)" font-family="'MyriadPro-Regular'" font-size="24">Content Side</text>
<text transform="matrix(1 0 0 1 98.577 54.9009)" font-family="'MyriadPro-Regular'" font-size="24">Github Side</text>
<g>
	<line fill="#FFFFFF" x1="275.1" y1="333.3" x2="350.3" y2="369.5"/>
	<g>
		<line fill="none" stroke="#000000" stroke-miterlimit="10" x1="275.1" y1="333.3" x2="350.3" y2="369.5"/>
		<g>
			<path d="M355.8,372.1c-3-0.3-7-0.2-9.8,0.6l3.6-3.5l0.5-5C351.3,366.8,353.7,369.9,355.8,372.1z"/>
		</g>
	</g>
</g>
<g>
	<line fill="#FFFFFF" x1="279.7" y1="497.4" x2="354.9" y2="553.6"/>
	<g>
		<line fill="none" stroke="#000000" stroke-miterlimit="10" x1="279.7" y1="497.4" x2="354.9" y2="553.6"/>
		<g>
			<path d="M359.7,557.2c-2.9-0.9-6.8-1.5-9.7-1.3l4.2-2.8l1.5-4.8C356.3,551.1,358.1,554.7,359.7,557.2z"/>
		</g>
	</g>
</g>
<g>
	<line fill="#FFFFFF" x1="350.3" y1="401.9" x2="279.7" y2="461.4"/>
	<g>
		<line fill="none" stroke="#000000" stroke-miterlimit="10" x1="350.3" y1="401.9" x2="279.7" y2="461.4"/>
		<g>
			<path d="M275.1,465.2c1.5-2.6,3-6.3,3.5-9.1l1.7,4.7l4.4,2.5C281.8,463.3,277.9,464.2,275.1,465.2z"/>
		</g>
	</g>
</g>
<path d="M-31.2-6.3"/>
<g>
	<g>
		<line fill="none" stroke="#000000" stroke-miterlimit="10" x1="272" y1="117.5" x2="346" y2="117.5"/>
		<g>
			<path d="M352,117.5c-2.8,1.1-6.4,2.9-8.5,4.8l1.7-4.8l-1.7-4.8C345.6,114.6,349.2,116.4,352,117.5z"/>
		</g>
	</g>
</g>
<rect x="47.3" y="182.1" fill="#FFFFFF" stroke="#000000" stroke-miterlimit="10" width="219.8" height="54.5"/>
<text transform="matrix(1 0 0 1 78.6965 204.3553)"><tspan x="0" y="0" font-family="'Roboto-Regular'" font-size="12">Fork an clone the repository  </tspan><tspan x="-6.3" y="14.4" font-family="'Roboto-Regular'" font-size="12">so you work on your local copy</tspan></text>
<g>
	<line fill="#FFFFFF" x1="347.3" y1="144.9" x2="276.7" y2="204.4"/>
	<g>
		<line fill="none" stroke="#000000" stroke-miterlimit="10" x1="347.3" y1="144.9" x2="276.7" y2="204.4"/>
		<g>
			<path d="M272.1,208.2c1.5-2.6,3-6.3,3.5-9.1l1.7,4.7l4.4,2.5C278.8,206.3,274.9,207.2,272.1,208.2z"/>
		</g>
	</g>
</g>
<rect x="357.3" y="245.5" fill="#FFFFFF" stroke="#000000" stroke-miterlimit="10" width="219.8" height="54.5"/>
<text transform="matrix(1 0 0 1 383.8485 268.8434)"><tspan x="0" y="0" font-family="'Roboto-Regular'" font-size="12">Edit your local copy of the content</tspan><tspan x="18.5" y="14.4" font-family="'Roboto-Regular'" font-size="12">until you’re ready to submit</tspan></text>
<g>
	<line fill="#FFFFFF" x1="346.2" y1="272.7" x2="275.3" y2="320.3"/>
	<g>
		<line fill="none" stroke="#000000" stroke-miterlimit="10" x1="346.2" y1="272.7" x2="275.3" y2="320.3"/>
		<g>
			<path d="M270.3,323.6c1.8-2.5,3.7-5.9,4.4-8.7l1.2,4.9l4.1,3C277.2,322.4,273.3,322.9,270.3,323.6z"/>
		</g>
	</g>
</g>
<g>
	<line fill="#FFFFFF" x1="272.1" y1="222.3" x2="346.2" y2="255.6"/>
	<g>
		<line fill="none" stroke="#000000" stroke-miterlimit="10" x1="272.1" y1="222.3" x2="346.2" y2="255.6"/>
		<g>
			<path d="M351.7,258.1c-3-0.2-7,0-9.7,0.8l3.5-3.6l0.4-5C347.1,252.9,349.6,256,351.7,258.1z"/>
		</g>
	</g>
</g>
</svg>
