<svg xmlns="http://www.w3.org/2000/svg" viewBox="0 0 156.209 149.251">
  <defs />
  <path fill="#e91c00" d="M83.783 94.765l9.841-10.707S57.16 44.546 54.238 42.482c0 0-5.029-1.473-5.313 4.095 3.586 7.03 34.858 48.188 34.858 48.188zm22.221 29.326s1.724-12.031-8.573-12.368c-10.3-.337-12.219-13.965-12.219-13.965L95.387 87.36c21.825 11.289 10.617 36.73 10.617 36.73z" />
  <path fill="#fff" d="M97.392 82.683h1.498v10.174h-1.498z" />
  <g fill="#fff">
    <path fill-opacity=".98" d="M89.61 102.355H70.2l-6.47 6.47h32.35z" />
    <path fill-opacity=".981" d="M47.554 56.59v42.057h64.702V56.59z" />
  </g>
  <g id="cog-group" fill="#000" transform="rotate(180deg)">
    <animateTransform attributeName="transform" attributeType="XML" type="rotate" from="0 80 80" to="360 80 80" dur="10s" repeatCount="indefinite" />
    <path id="cog" d="M77.193 90.463l-.364-2.196-.303-.097a10.96 10.96 0 01-1.671-.686l-.35-.174-1.815 1.27c-.999.699-1.82 1.27-1.827 1.27-.006 0-.746-.735-1.645-1.634l-1.633-1.635 1.29-1.805 1.292-1.805-.143-.273a11.73 11.73 0 01-.745-1.8l-.08-.255-2.179-.386-2.179-.386-.004-2.317-.004-2.317 2.143-.356c1.18-.196 2.164-.362 2.189-.368.04-.01.057-.05.145-.322.19-.594.443-1.202.718-1.726.078-.15.137-.283.132-.297-.006-.014-.574-.833-1.264-1.82-.69-.986-1.255-1.8-1.255-1.806 0-.007.736-.748 1.635-1.646l1.634-1.633 1.808 1.292 1.807 1.293.31-.156c.59-.297 1.083-.5 1.652-.68.186-.059.345-.119.352-.133.011-.022.714-4.31.714-4.356 0-.008 1.044-.012 2.32-.01l2.322.005.361 2.064c.2 1.134.372 2.123.384 2.196l.023.134.286.091c.646.207 1.495.57 1.945.831l.077.044 1.817-1.308 1.817-1.307 1.635 1.633c.9.898 1.635 1.639 1.635 1.646 0 .007-.574.83-1.274 1.828-.7.998-1.278 1.825-1.283 1.838-.004.013.051.14.126.282.265.506.543 1.176.723 1.743.081.257.091.277.14.287.085.017 4.331.708 4.354.708.015 0 .02.606.017 2.322l-.004 2.322-2.204.386-2.205.387-.134.396a10.62 10.62 0 01-.688 1.644c-.124.235-.131.254-.105.293.015.023.605.843 1.31 1.822l1.284 1.781-1.634 1.635c-.9.899-1.64 1.634-1.647 1.634-.006 0-.827-.571-1.823-1.27-.996-.7-1.819-1.276-1.828-1.282-.011-.006-.148.056-.307.14-.555.288-1.17.545-1.734.724-.235.074-.28.094-.288.13a408.85 408.85 0 00-.393 2.199l-.383 2.158-2.317.004-2.318.005zm3.111-8.678a4.264 4.264 0 002.23-.9c.17-.135.539-.503.674-.674a4.22 4.22 0 000-5.254 5.914 5.914 0 00-.675-.676 4.22 4.22 0 00-5.254 0c-.172.136-.54.504-.675.676a4.22 4.22 0 000 5.253c.135.172.503.54.675.675a4.245 4.245 0 003.025.9z" />
  </g>
</svg>
