<svg viewBox="0 0 679 524" class="img-d-2">
  <style>.img-d-2 .st0{fill:#5F6464;} .img-d-2 .st1{font-family:Inconsolata; font-weight: bold;} .img-d-2 .st2{font-size:25.7772px;} .img-d-2 .st3{fill:#C92C2C;} .img-d-2 .st4{fill:#309D47;} .img-d-2 .st5{fill:#1990B8; white-space: pre;} .img-d-2 .st6{fill:#309D48;} .img-d-2 .st7{fill:none;} .img-d-2 .st8{font-family:'Just Another Hand'} .img-d-2 .st9{font-size:41px;} .img-d-2 .st10{fill:none;stroke:#ED1F24;stroke-width:3;stroke-miterlimit:10;} .img-d-2 .st11{fill:#ED1F24;}</style>
  <text transform="matrix(1 -.026 .026 1 1.971 35.909)">
    <tspan x="0" y="0" class="st0 st1 st2">&lt;</tspan>
    <tspan x="12.9" y="0" class="st3 st1 st2">img</tspan>
    <tspan x="51.6" y="0" class="st1 st2"></tspan>
    <tspan x="64.4" y="0" class="st4 st1 st2">alt</tspan>
    <tspan x="103.1" y="0" class="st0 st1 st2">="</tspan>
    <tspan x="128.9" y="0" class="st5 st1 st2">A red panda eating leaves</tspan>
    <tspan x="451.1" y="0" class="st0 st1 st2">"</tspan>
    <tspan x="0" y="30.9" class="st1 st2"></tspan>
    <tspan x="64.4" y="30.9" class="st4 st1 st2">src</tspan>
    <tspan x="103.1" y="30.9" class="st0 st1 st2">="</tspan>
    <tspan x="128.9" y="30.9" class="st5 st1 st2">panda-689.jpg</tspan>
    <tspan x="296.4" y="30.9" class="st0 st1 st2">"</tspan>
    <tspan x="0" y="61.9" class="st1 st2"></tspan>
    <tspan x="64.4" y="61.9" class="st4 st1 st2">srcset</tspan>
    <tspan x="141.8" y="61.9" class="st0 st1 st2">="</tspan>
    <tspan x="167.6" y="61.9" class="st5 st1 st2">panda-689.jpg 689w,</tspan>
    <tspan x="0" y="92.8" class="st5 st1 st2">             panda-1378.jpg 1378w,</tspan>
    <tspan x="0" y="123.7" class="st5 st1 st2">             panda-500.jpg 500w,</tspan>
    <tspan x="0" y="154.7" class="st5 st1 st2">             panda-1000.jpg 1000w</tspan>
    <tspan x="425.3" y="154.7" class="st0 st1 st2">"</tspan>
    <tspan x="0" y="247.5" class="st0 st1 st2"></tspan>
    <tspan x="64.4" y="247.5" class="st6 st1 st2">sizes</tspan>
    <tspan x="128.9" y="247.5" class="st0 st1 st2">="</tspan>
    <tspan x="154.7" y="247.5" class="st5 st1 st2">(min-width: 1066px) 689px,</tspan>
    <tspan x="0" y="278.4" class="st5 st1 st2">            (min-width: 800px) calc(75vw - 137px),</tspan>
    <tspan x="0" y="309.3" class="st5 st1 st2">            (min-width: 530px) calc(100vw - 96px),</tspan>
    <tspan x="0" y="340.3" class="st5 st1 st2">            100vw</tspan>
    <tspan x="219.1" y="340.3" class="st0 st1 st2">"&gt;</tspan>
  </text>
  <path class="st7" d="M697.2 153.5L459.8 126l11-95.3 237.5 27.5z"></path>
  <text transform="matrix(.993 .115 -.115 .993 466.83 65.475)">
    <tspan x="0" y="0" class="st8 st9">Only for browsers that </tspan>
    <tspan x="0" y="40" class="st8 st9">don’t support srcset</tspan>
  </text>
  <g>
    <g>
      <path class="st10" d="M329.8 50c73.8-2 94.6 13.3 128 14.8"></path>
      <g>
        <path class="st11" d="M335.5 57l-3.3-7.2 2.8-7.3-17 7.8z"></path>
      </g>
    </g>
  </g>
  <text transform="matrix(.994 -.108 .108 .994 65.622 254.292)" class="st8 st9">Image url</text>
  <text transform="matrix(.993 -.122 .122 .993 416.958 245.847)" class="st8 st9">Width of the image data</text>
  <g>
    <g>
      <path class="st10" d="M196 203.3c-1.8 19.4-14.4 33.3-36 34.3"></path>
      <g>
        <path class="st11" d="M188.6 208.7l7.3-3 7 3-7-17z"></path>
      </g>
    </g>
  </g>
  <g>
    <g>
      <path class="st10" d="M384.7 199c1 26.7 11 41 28.2 41"></path>
      <g>
        <path class="st11" d="M377.6 204.7l7.2-3.2 7.3 3-7-17z"></path>
      </g>
    </g>
  </g>
  <text transform="matrix(1 .027 -.027 1 165.881 415.307)" class="st8 st9">Width of the window</text>
  <text transform="matrix(.999 -.05 .05 .999 447.409 407.548)">
    <tspan x="0" y="0" class="st8 st9">Width of the img element</tspan>
    <tspan x="-15" y="40" class="st8 st9">when the condition matches</tspan>
  </text>
  <g>
    <g>
      <path class="st10" d="M356.5 357.6c1 19.7-1.4 39-23 40"></path>
      <g>
        <path class="st11" d="M349.6 363.5l7-3.5 7.4 2.6-8.3-16.6z"></path>
      </g>
    </g>
  </g>
  <g>
    <g>
      <path class="st10" d="M427.6 354c-3.7 22-8.4 67 17.7 65.3"></path>
      <g>
        <path class="st11" d="M419.5 358l7.7-1.5 6.5 4.3-4-18z"></path>
      </g>
    </g>
  </g>
  <path class="st7" d="M31.4 428h257v109h-257z"></path>
  <text transform="translate(31.431 463)">
    <tspan x="0" y="0" class="st8 st9">Fallback width, when no </tspan>
    <tspan x="0" y="40" class="st8 st9">media conditions match</tspan>
  </text>
  <g>
    <g>
      <path class="st10" d="M148.3 368C100 375.2 94 428 94 428"></path>
      <g>
        <path class="st11" d="M142.2 361.3l3.7 7-2.7 7.4L160 367z"></path>
      </g>
    </g>
  </g>
</svg>
